<svg xmlns="http://www.w3.org/2000/svg" xmlns:xlink="http://www.w3.org/1999/xlink"><symbol viewBox="0 0 24 24" id="admin" xmlns="http://www.w3.org/2000/svg"><path fill="none" stroke="currentColor" stroke-width="2" d="M8 11A5 5 0 1 0 8 1a5 5 0 0 0 0 10Zm5.023 2.023C11.772 11.76 10.013 11 8 11c-4 0-7 3-7 7v5h7m2-3.5a2.5 2.5 0 1 0 5.002-.002A2.5 2.5 0 0 0 10 19.5ZM23 15l-3-3-6 6m3.5-3.5 3 3z"/></symbol><symbol viewBox="0 0 32 32" id="admin-badge" xmlns="http://www.w3.org/2000/svg"><g fill="none"><path fill="url(#a)" d="M25.125 18.056v4.166l-8.095 7.75q-.51.027-1.03.028c-3.198 0-6.14-.823-8.315-2.207C5.523 26.417 4 24.393 4 22v-.5A3.5 3.5 0 0 1 7.5 18h17q.32.001.625.056"/><path fill="url(#b)" d="M25.125 18.056v4.166l-8.095 7.75q-.51.027-1.03.028c-3.198 0-6.14-.823-8.315-2.207C5.523 26.417 4 24.393 4 22v-.5A3.5 3.5 0 0 1 7.5 18h17q.32.001.625.056"/><path fill="url(#c)" fill-opacity=".75" d="M25.125 18.056v4.166l-8.095 7.75q-.51.027-1.03.028c-3.198 0-6.14-.823-8.315-2.207C5.523 26.417 4 24.393 4 22v-.5A3.5 3.5 0 0 1 7.5 18h17q.32.001.625.056"/><path fill="url(#d)" fill-opacity=".75" d="M25.125 18.056v4.166l-8.095 7.75q-.51.027-1.03.028c-3.198 0-6.14-.823-8.315-2.207C5.523 26.417 4 24.393 4 22v-.5A3.5 3.5 0 0 1 7.5 18h17q.32.001.625.056"/><path fill="url(#e)" d="M16 16a7 7 0 1 0 0-14 7 7 0 0 0 0 14"/><path fill="url(#f)" fill-rule="evenodd" d="M25 25.9a5 5 0 1 0-3.703-3.197l-5.15 5.15a.5.5 0 0 0-.147.354V30.5a.5.5 0 0 0 .5.5h4a.5.5 0 0 0 .5-.5v-1a.5.5 0 0 1 .5-.5h1a.5.5 0 0 0 .5-.5v-1a.5.5 0 0 1 .5-.5h1a.5.5 0 0 0 .5-.5zm3.121-5.607a1 1 0 1 1-1.414-1.414 1 1 0 0 1 1.414 1.414" clip-rule="evenodd"/><defs><linearGradient id="a" x1="9.707" x2="13.584" y1="19.595" y2="31.977" gradientUnits="userSpaceOnUse"><stop offset=".125" stop-color="#9c6cfe"/><stop offset="1" stop-color="#7a41dc"/></linearGradient><linearGradient id="b" x1="16" x2="21.429" y1="16.571" y2="36.857" gradientUnits="userSpaceOnUse"><stop stop-color="#885edb" stop-opacity="0"/><stop offset="1" stop-color="#e362f8"/></linearGradient><linearGradient id="e" x1="12.329" x2="19.464" y1="3.861" y2="15.254" gradientUnits="userSpaceOnUse"><stop offset=".125" stop-color="#9c6cfe"/><stop offset="1" stop-color="#7a41dc"/></linearGradient><linearGradient id="f" x1="31.021" x2="16.774" y1="30.994" y2="19.339" gradientUnits="userSpaceOnUse"><stop stop-color="#ff6f47"/><stop offset="1" stop-color="#ffcd0f"/></linearGradient><radialGradient id="c" cx="0" cy="0" r="1" gradientTransform="matrix(9.68243 -16.2857 8.42637 5.00978 20.724 34.286)" gradientUnits="userSpaceOnUse"><stop stop-color="#0a1852" stop-opacity=".75"/><stop offset="1" stop-color="#0a1852" stop-opacity="0"/></radialGradient><radialGradient id="d" cx="0" cy="0" r="1" gradientTransform="matrix(0 -5.5 7.25 0 26 21.5)" gradientUnits="userSpaceOnUse"><stop stop-color="#0a1852" stop-opacity=".75"/><stop offset="1" stop-color="#0a1852" stop-opacity="0"/></radialGradient></defs></g></symbol><symbol fill="none" viewBox="0 0 21 12" id="burger" xmlns="http://www.w3.org/2000/svg"><path d="M20 10a1 1 0 1 1 0 2H1a1 1 0 1 1 0-2h19Zm0-5a1 1 0 1 1 0 2H1a1 1 0 0 1 0-2h19Zm0-5a1 1 0 1 1 0 2H1a1 1 0 0 1 0-2h19Z" fill="currentColor"/></symbol><symbol fill="none" viewBox="0 0 30 30" id="close" xmlns="http://www.w3.org/2000/svg"><path d="m22.5 7.5-15 15M7.5 7.5l15 15" stroke="currentColor" stroke-width="1.25" stroke-linecap="round" stroke-linejoin="round"/></symbol><symbol viewBox="0 0 24 24" id="dashboard" xmlns="http://www.w3.org/2000/svg"><path fill="none" stroke="currentColor" stroke-linecap="round" stroke-linejoin="round" stroke-width="1.5" d="M8.557 2.75H4.682A1.93 1.93 0 0 0 2.75 4.682v3.875a1.94 1.94 0 0 0 1.932 1.942h3.875a1.94 1.94 0 0 0 1.942-1.942V4.682A1.94 1.94 0 0 0 8.557 2.75m10.761 0h-3.875a1.94 1.94 0 0 0-1.942 1.932v3.875a1.943 1.943 0 0 0 1.942 1.942h3.875a1.94 1.94 0 0 0 1.932-1.942V4.682a1.93 1.93 0 0 0-1.932-1.932m0 10.75h-3.875a1.94 1.94 0 0 0-1.942 1.933v3.875a1.94 1.94 0 0 0 1.942 1.942h3.875a1.94 1.94 0 0 0 1.932-1.942v-3.875a1.93 1.93 0 0 0-1.932-1.932M8.557 13.5H4.682a1.943 1.943 0 0 0-1.932 1.943v3.875a1.93 1.93 0 0 0 1.932 1.932h3.875a1.94 1.94 0 0 0 1.942-1.932v-3.875a1.94 1.94 0 0 0-1.942-1.942"/></symbol><symbol fill="none" viewBox="0 0 24 24" id="edit" xmlns="http://www.w3.org/2000/svg"><path d="M15 5.914c.36 0 .653.152.916.353.251.191.528.47.852.794l.171.171c.324.324.603.6.794.852.201.263.353.556.353.916s-.152.653-.353.916c-.191.251-.47.528-.794.852l-7.194 7.194c-.176.176-.326.332-.517.44-.191.108-.403.157-.644.217l-2.654.664c-.164.041-.343.087-.492.102-.154.015-.415.01-.625-.199-.209-.209-.213-.47-.198-.625.015-.148.06-.326.102-.49l.664-2.655c.06-.241.109-.453.217-.643.108-.191.264-.342.44-.518l7.194-7.194c.324-.324.6-.603.852-.794.263-.201.556-.353.916-.353Z" stroke="currentColor"/><path d="m12.5 7.5 3-2 3 3-2 3-4-4Z" fill="currentColor"/></symbol><symbol viewBox="0 0 24 24" id="left-double" xmlns="http://www.w3.org/2000/svg"><path d="m8.121 12 4.94-4.939-2.122-2.122L3.879 12l7.06 7.061 2.122-2.122z" fill="currentColor"/><path d="M17.939 4.939 10.879 12l7.06 7.061 2.122-2.122L15.121 12l4.94-4.939z" fill="currentColor"/></symbol><symbol viewBox="0 0 24 24" id="left-once" xmlns="http://www.w3.org/2000/svg"><path d="M13.939 4.939 6.879 12l7.06 7.061 2.122-2.122L11.121 12l4.94-4.939z" fill="currentColor"/></symbol><symbol fill="none" viewBox="0 0 24 24" id="like" xmlns="http://www.w3.org/2000/svg"><path d="m4.45 13.908 6.953 6.531c.24.225.36.338.5.366a.5.5 0 0 0 .193 0c.142-.028.261-.14.5-.366l6.953-6.53a5.203 5.203 0 0 0 .549-6.983l-.31-.399c-1.968-2.536-5.918-2.111-7.301.787a.54.54 0 0 1-.974 0C10.13 4.416 6.18 3.99 4.212 6.527l-.31.4a5.203 5.203 0 0 0 .549 6.981Z" stroke="currentColor"/></symbol><symbol viewBox="0 0 24 24" id="right-double" xmlns="http://www.w3.org/2000/svg"><path d="m13.061 4.939-2.122 2.122L15.879 12l-4.94 4.939 2.122 2.122L20.121 12z" fill="currentColor"/><path d="M6.061 19.061 13.121 12l-7.06-7.061-2.122 2.122L8.879 12l-4.94 4.939z" fill="currentColor"/></symbol><symbol viewBox="0 0 24 24" id="right-once" xmlns="http://www.w3.org/2000/svg"><path d="M10.061 19.061 17.121 12l-7.06-7.061-2.122 2.122L12.879 12l-4.94 4.939z" fill="currentColor"/></symbol><symbol viewBox="0 0 24 24" id="sessions" xmlns="http://www.w3.org/2000/svg"><path fill="currentColor" d="m19.431 12.193-4.53-2.51h3.071a4.847 4.847 0 0 0 4.842-4.841A4.85 4.85 0 0 0 17.972 0H7.252a6.073 6.073 0 0 0-6.066 6.066 6.57 6.57 0 0 0 3.383 5.741l4.53 2.51H6.028a4.847 4.847 0 0 0-4.842 4.841A4.85 4.85 0 0 0 6.028 24h10.72a6.073 6.073 0 0 0 6.066-6.066 6.57 6.57 0 0 0-3.383-5.741m-14.136-1.7a5.07 5.07 0 0 1-2.607-4.309C2.627 3.61 4.79 1.5 7.367 1.5h10.508c1.797 0 3.345 1.378 3.434 3.173a3.345 3.345 0 0 1-3.337 3.51H11.92a.67.67 0 0 0-.67.67l-.001 4.94zM16.633 22.5H6.124c-1.797 0-3.345-1.378-3.434-3.173a3.345 3.345 0 0 1 3.337-3.51h6.053c.37 0 .67-.3.67-.67v-4.94l5.954 3.3a5.07 5.07 0 0 1 2.608 4.309c.06 2.575-2.103 4.684-4.679 4.684"/></symbol><symbol viewBox="0 0 20 20" id="settings" xmlns="http://www.w3.org/2000/svg"><path fill="currentColor" d="M17.18 2.927a2.975 2.975 0 0 0-4.26-.054l-9.375 9.375a2.44 2.44 0 0 0-.655 1.194l-.878 3.95a.5.5 0 0 0 .597.597l3.926-.873a2.5 2.5 0 0 0 1.234-.678L8.207 16a5.5 5.5 0 0 1-.2-1.214l-.945.945a1.5 1.5 0 0 1-.744.409l-3.16.702.708-3.183c.059-.267.193-.511.387-.704l7.996-7.996 2.793 2.792-1.256 1.256q.629.034 1.214.2l2.127-2.127a2.975 2.975 0 0 0 .052-4.153m-3.553.653a1.975 1.975 0 0 1 2.793 2.793l-.671.671-2.793-2.792zm-2.56 7.863a2 2 0 0 1-1.431 2.478l-.461.118a4.7 4.7 0 0 0 .01 1.016l.35.083a2 2 0 0 1 1.456 2.519l-.127.422q.387.307.835.518l.325-.344a2 2 0 0 1 2.91.002l.337.358q.44-.203.822-.498l-.156-.556a2 2 0 0 1 1.43-2.479l.46-.117a4.7 4.7 0 0 0-.01-1.017l-.348-.082a2 2 0 0 1-1.456-2.52l.126-.421a4.3 4.3 0 0 0-.835-.519l-.325.344a2 2 0 0 1-2.91-.001l-.337-.358a4.3 4.3 0 0 0-.821.497zM13.5 15.5a1 1 0 1 1 0-2 1 1 0 0 1 0 2"/></symbol><symbol viewBox="0 0 24 24" id="user" xmlns="http://www.w3.org/2000/svg"><g fill="none" stroke="currentColor" stroke-linecap="round" stroke-linejoin="round" stroke-width="1.5"><path d="M14 8.5a5 5 0 1 0-10 0 5 5 0 0 0 10 0"/><path d="M16 20.5a7 7 0 1 0-14 0M21.689 7.934l-.623-.623a1.063 1.063 0 0 0-1.503 0l-3.142 3.253A1.5 1.5 0 0 0 16 11.606V13h1.394a1.5 1.5 0 0 0 1.042-.421l3.253-3.142a1.063 1.063 0 0 0 0-1.503"/></g></symbol></svg>